<?xml version="1.0" encoding="UTF-8"?>
<svg xmlns="http://www.w3.org/2000/svg" version="1.1" viewBox="0 0 171.62 153.45">
  <!-- Generator: Adobe Illustrator 28.7.4, SVG Export Plug-In . SVG Version: 1.2.0 Build 166)  -->
  <g>
    <g id="Layer_3">
      <g>
        <rect x="9.45" y="144.27" width="152.94" height="8.94"/>
        <rect x="36.34" y=".13" width="9.07" height="9.13" transform="translate(81.76 9.4) rotate(-180)"/>
        <rect x="45.43" y="9.22" width="9.07" height="9.01" transform="translate(99.92 27.44) rotate(-180)"/>
        <rect x="27.4" y="9.24" width="8.98" height="18.08" transform="translate(63.78 36.57) rotate(-180)"/>
        <rect x="9.41" y="27.28" width="18" height="9" transform="translate(36.83 63.57) rotate(-180)"/>
        <rect x=".31" y="36.25" width="9.14" height="108.07" transform="translate(9.76 180.56) rotate(-180)"/>
        <path d="M27.37,53.15v72.95h116.26V53.15H27.37ZM59.56,109.21h-10.44v-31.56h10.44v31.56ZM122.73,108.92h-10.44v-31.56h10.44v31.56Z"/>
        <rect x="54.38" y="18.18" width="63" height="9.01" transform="translate(171.77 45.38) rotate(-180)"/>
        <rect x="126.39" y=".2" width="9" height="9.05"/>
        <rect x="117.36" y="9.26" width="9.04" height="8.95"/>
        <rect x="135.37" y="9.25" width="9" height="18.02"/>
        <rect x="144.35" y="27.24" width="18.04" height="8.97"/>
        <rect x="162.35" y="36.21" width="9.01" height="108.09"/>
      </g>
    </g>
  </g>
</svg>